{
	"asset":{
		"generator":"Khronos glTF Blender I/O v3.5.30",
		"version":"2.0"
	},
	"extensionsUsed":[
		"KHR_materials_emissive_strength"
	],
	"scene":0,
	"scenes":[
		{
			"name":"Scene",
			"nodes":[
				0
			]
		}
	],
	"nodes":[
		{
			"mesh":0,
			"name":"Sphere",
			"scale":[
				4.174015045166016,
				4.174015045166016,
				4.174015045166016
			]
		}
	],
	"materials":[
		{
			"alphaCutoff":0.5,
			"alphaMode":"MASK",
			"doubleSided":true,
			"emissiveFactor":[
				1,
				1,
				1
			],
			"emissiveTexture":{
				"index":0
			},
			"extensions":{
				"KHR_materials_emissive_strength":{
					"emissiveStrength":2.299999952316284
				}
			},
			"name":"Sphere_Baked.001",
			"pbrMetallicRoughness":{
				"baseColorTexture":{
					"index":1
				},
				"metallicFactor":0,
				"roughnessFactor":0.5
			}
		}
	],
	"meshes":[
		{
			"name":"Sphere",
			"primitives":[
				{
					"attributes":{
						"POSITION":0,
						"TEXCOORD_0":1,
						"NORMAL":2
					},
					"indices":3,
					"material":0
				}
			]
		}
	],
	"textures":[
		{
			"sampler":0,
			"source":0
		},
		{
			"sampler":0,
			"source":1
		}
	],
	"images":[
		{
			"bufferView":4,
			"mimeType":"image/png",
			"name":"0_Sphere_EMISSION.001"
		},
		{
			"bufferView":5,
			"mimeType":"image/png",
			"name":"0_Sphere_ALBEDO.001-0_Sphere_OPACITY.001"
		}
	],
	"accessors":[
		{
			"bufferView":0,
			"componentType":5126,
			"count":459,
			"max":[
				0.9999997019767761,
				0.8049834966659546,
				0.9999993443489075
			],
			"min":[
				-0.9999990463256836,
				0,
				-1
			],
			"type":"VEC3"
		},
		{
			"bufferView":1,
			"componentType":5126,
			"count":459,
			"type":"VEC2"
		},
		{
			"bufferView":2,
			"componentType":5126,
			"count":459,
			"type":"VEC3"
		},
		{
			"bufferView":3,
			"componentType":5123,
			"count":579,
			"type":"SCALAR"
		}
	],
	"bufferViews":[
		{
			"buffer":0,
			"byteLength":5508,
			"byteOffset":0,
			"target":34962
		},
		{
			"buffer":0,
			"byteLength":3672,
			"byteOffset":5508,
			"target":34962
		},
		{
			"buffer":0,
			"byteLength":5508,
			"byteOffset":9180,
			"target":34962
		},
		{
			"buffer":0,
			"byteLength":1158,
			"byteOffset":14688,
			"target":34963
		},
		{
			"buffer":0,
			"byteLength":51566,
			"byteOffset":15848
		},
		{
			"buffer":0,
			"byteLength":101992,
			"byteOffset":67416
		}
	],
	"samplers":[
		{
			"magFilter":9729,
			"minFilter":9987
		}
	],
	"buffers":[
		{
			"byteLength":169408,
			"uri":"data:application/octet-stream;base64,"
		}
	]
}
