# Blender 3.4.0
# www.blender.org
mtllib Map.mtl
o Cube.005
v -7.999994 -1.751352 7.999994
v -7.999994 1.751352 7.999994
v -7.999994 -1.751352 -7.999994
v -7.999994 1.751352 -7.999994
v 7.999994 -1.751352 7.999994
v 7.999994 1.751352 7.999994
v 7.999994 -1.751352 -7.999994
v 7.999994 1.751352 -7.999994
vn -1.0000 -0.0000 -0.0000
vn -0.0000 -0.0000 -1.0000
vn 1.0000 -0.0000 -0.0000
vn -0.0000 -0.0000 1.0000
vn -0.0000 -1.0000 -0.0000
vt 0.375000 0.000000
vt 0.375000 1.000000
vt 0.125000 0.750000
vt 0.625000 0.000000
vt 0.625000 1.000000
vt 0.125000 0.500000
vt 0.375000 0.250000
vt 0.625000 0.250000
vt 0.375000 0.750000
vt 0.625000 0.750000
vt 0.375000 0.500000
vt 0.625000 0.500000
s 0
usemtl RGB_Glow
f 2/4/1 3/7/1 1/1/1
f 4/8/2 7/11/2 3/7/2
f 8/12/3 5/9/3 7/11/3
f 6/10/4 1/2/4 5/9/4
f 7/11/5 1/3/5 3/6/5
f 2/4/1 4/8/1 3/7/1
f 4/8/2 8/12/2 7/11/2
f 8/12/3 6/10/3 5/9/3
f 6/10/4 2/5/4 1/2/4
f 7/11/5 5/9/5 1/3/5
