{
    "asset" : {
        "generator" : "Khronos glTF Blender I/O v3.4.49",
        "version" : "2.0"
    },
    "scene" : 0,
    "scenes" : [
        {
            "name" : "Scene",
            "nodes" : [
                0
            ]
        }
    ],
    "nodes" : [
        {
            "mesh" : 0,
            "name" : "Gun",
            "rotation" : [
                0.019356347620487213,
                -0.04757697135210037,
                0.20188592374324799,
                0.978061318397522
            ],
            "translation" : [
                0.083587646484375,
                0.0917215347290039,
                -0.04599776491522789
            ]
        }
    ],
    "materials" : [
        {
            "doubleSided" : true,
            "name" : "Mapped",
            "pbrMetallicRoughness" : {
                "baseColorTexture" : {
                    "index" : 0
                },
                "metallicFactor" : 0,
                "roughnessFactor" : 0.5
            }
        }
    ],
    "meshes" : [
        {
            "name" : "Plane.003",
            "primitives" : [
                {
                    "attributes" : {
                        "POSITION" : 0,
                        "TEXCOORD_0" : 1,
                        "NORMAL" : 2
                    },
                    "indices" : 3,
                    "material" : 0
                }
            ]
        }
    ],
    "textures" : [
        {
            "sampler" : 0,
            "source" : 0
        }
    ],
    "images" : [
        {
            "bufferView" : 4,
            "mimeType" : "image/png",
            "name" : "Gun_ALBEDO"
        }
    ],
    "accessors" : [
        {
            "bufferView" : 0,
            "componentType" : 5126,
            "count" : 7906,
            "max" : [
                81.3839111328125,
                16.25974464416504,
                11.220325469970703
            ],
            "min" : [
                -34.8950080871582,
                -34.39966583251953,
                -15.334859848022461
            ],
            "type" : "VEC3"
        },
        {
            "bufferView" : 1,
            "componentType" : 5126,
            "count" : 7906,
            "type" : "VEC2"
        },
        {
            "bufferView" : 2,
            "componentType" : 5126,
            "count" : 7906,
            "type" : "VEC3"
        },
        {
            "bufferView" : 3,
            "componentType" : 5123,
            "count" : 16296,
            "type" : "SCALAR"
        }
    ],
    "bufferViews" : [
        {
            "buffer" : 0,
            "byteLength" : 94872,
            "byteOffset" : 0,
            "target" : 34962
        },
        {
            "buffer" : 0,
            "byteLength" : 63248,
            "byteOffset" : 94872,
            "target" : 34962
        },
        {
            "buffer" : 0,
            "byteLength" : 94872,
            "byteOffset" : 158120,
            "target" : 34962
        },
        {
            "buffer" : 0,
            "byteLength" : 32592,
            "byteOffset" : 252992,
            "target" : 34963
        },
        {
            "buffer" : 0,
            "byteLength" : 389380,
            "byteOffset" : 285584
        }
    ],
    "samplers" : [
        {
            "magFilter" : 9729,
            "minFilter" : 9987
        }
    ],
    "buffers" : [
        {
            "byteLength" : 674964,
            "uri" : "data:application/octet-stream;base64,"
        }
    ]
}
